<svg id="Capa_1" data-name="Capa 1" xmlns="http://www.w3.org/2000/svg" viewBox="0 0 512.19 91.33"><defs><style>.cls-1{fill:#3e4375;}</style></defs><path class="cls-1" d="M213.44,108.15c-10.9,0-18.79-8.87-18.79-19.81s7.89-19.65,18.79-19.65c6.5,0,11.38,2.77,15.94,6.9l6.42-7.21c-5.44-5.08-11.79-8.64-22.28-8.64-17.25,0-29.36,12.91-29.36,28.76,0,16,12.36,28.61,29,28.61,10.66,0,17.16-3.8,23.1-9.83L229.79,101c-4.88,4.43-9.36,7.2-16.35,7.2" transform="translate(-41.54 -25.78)"/><path class="cls-1" d="M288.59,92.62c0,10.23-5.45,15.46-14.32,15.46s-14.4-5.55-14.4-15.85V60.69h-10V92.62c0,16.09,9.43,24.41,24.24,24.41s24.48-8.32,24.48-24.88V60.69h-10Z" transform="translate(-41.54 -25.78)"/><polygon class="cls-1" points="273.23 34.91 273.23 90.38 315.85 90.38 315.85 81.67 283.23 81.67 283.23 66.77 311.78 66.77 311.78 58.05 283.23 58.05 283.23 43.63 315.44 43.63 315.44 34.91 273.23 34.91"/><polygon class="cls-1" points="370.75 34.91 370.75 73.26 340.25 34.91 330.97 34.91 330.97 90.38 340.81 90.38 340.81 50.91 372.21 90.38 380.59 90.38 380.59 34.91 370.75 34.91"/><path class="cls-1" d="M465.16,108.15c-10.9,0-18.79-8.87-18.79-19.81s7.89-19.65,18.79-19.65c6.5,0,11.38,2.77,15.94,6.9l6.42-7.21c-5.44-5.08-11.79-8.64-22.28-8.64-17.24,0-29.36,12.91-29.36,28.76,0,16,12.36,28.61,28.95,28.61,10.66,0,17.16-3.8,23.1-9.83L481.51,101c-4.88,4.43-9.36,7.2-16.35,7.2" transform="translate(-41.54 -25.78)"/><path class="cls-1" d="M523.88,71.94l9.84,22.19h-19.6ZM519.4,60.29l-25,55.87H504.6l5.86-13.39h26.92l5.78,13.39h10.57L528.68,60.29Z" transform="translate(-41.54 -25.78)"/><path class="cls-1" d="M97,87.33,109.85,109H84.19ZM82.74,63.23,92.32,79.4,74.8,109H55.63Zm19,16.17L124.1,41.63,164,109H119.24ZM124.1,25.78,97,71.48,82.74,47.39,41.54,116.9H178.1Z" transform="translate(-41.54 -25.78)"/></svg>